<svg width="1080" height="1080" viewBox="0 0 1080 1080" fill="none" xmlns="http://www.w3.org/2000/svg">
<path d="M0 160C0 71.6344 71.6344 0 160 0H920C1008.37 0 1080 71.6344 1080 160V920C1080 1008.37 1008.37 1080 920 1080H160C71.6344 1080 0 1008.37 0 920V160Z" fill="#307CD3"/>
<path fill-rule="evenodd" clip-rule="evenodd" d="M695.407 221.992C724.866 216.223 756.186 223.289 781.341 239.235C808.612 258.57 829.083 285.27 835.244 318.885C839.689 351.814 833.826 383.187 815.06 410.697C812.236 414.346 809.294 417.768 806.17 421.163L803.095 424.592C794.787 433.4 785.42 439.876 775.156 446.243C780.253 449.041 785.484 450.628 791.032 452.329C834.219 466.217 869.219 494.624 890.35 534.763C900.975 556.696 907.08 579.833 906.978 604.198C906.985 606.511 906.985 606.512 906.993 608.873C907.006 613.92 906.998 618.968 906.988 624.015C906.99 627.555 906.993 631.095 906.996 634.635C907.001 642.034 906.994 649.433 906.98 656.833C906.964 666.279 906.973 675.725 906.99 685.171C907.001 692.475 906.998 699.78 906.99 707.085C906.989 710.566 906.991 714.048 906.998 717.529C907.005 722.41 906.994 727.29 906.978 732.171C906.984 733.586 906.99 735.001 906.996 736.459C906.908 750.792 904.951 764.815 899.673 778.193C899.285 779.189 898.897 780.186 898.497 781.212C891.436 798.772 881.449 812.147 868.197 825.404L865.255 828.395C853.06 839.924 837.973 847.197 822.231 852.513C821.193 852.865 820.155 853.217 819.085 853.579C802.502 858.84 786.008 859.873 768.695 859.89L762.846 859.999C737.996 860.073 716.393 852.804 698.545 835.178C675.3 810.655 671.431 784.591 670.854 752.191C670.798 749.557 670.74 746.923 670.681 744.289C670.541 737.887 670.416 731.484 670.301 725.081C669.704 725.782 669.107 726.482 668.492 727.204C661.67 735.112 654.489 742.567 647.092 749.937C645.889 751.14 644.686 752.343 643.446 753.582C640.917 756.11 638.387 758.636 635.854 761.159C632.006 764.996 628.165 768.841 624.325 772.687C621.854 775.155 619.382 777.622 616.909 780.089C615.775 781.225 614.641 782.361 613.473 783.531C591.698 805.19 569.259 821.746 537.477 822.914C517.681 822.383 500.019 814.367 485.217 801.539C483.892 800.397 483.892 800.396 482.541 799.231C471.933 789.947 461.992 779.984 452.067 769.982C448.843 766.734 445.606 763.499 442.368 760.265C440.274 758.166 438.181 756.066 436.089 753.966C435.141 753.017 434.194 752.068 433.217 751.091C427.622 745.444 422.313 739.623 417.116 733.609C414.501 730.634 411.759 727.823 408.9 725.081C408.878 726.687 408.857 728.293 408.835 729.947C408.748 735.985 408.633 742.023 408.512 748.061C408.463 750.659 408.422 753.258 408.388 755.856C408.126 775.423 406.787 793.125 397.639 810.835C397.131 811.832 396.622 812.829 396.098 813.856C391.3 822.884 385.296 830.155 377.886 837.207L375.371 839.754C357.826 856.344 334.256 860.156 311.059 859.89C308.227 859.867 308.227 859.867 305.338 859.844C265.449 859.19 232.07 845.643 203.475 817.981C175.829 788.288 171.905 754.036 172.017 715.601C172.014 711.947 172.009 708.294 172.004 704.64C171.997 697.005 172.007 689.37 172.028 681.735C172.053 672.008 172.039 662.282 172.012 652.555C171.996 645.015 172.001 637.474 172.012 629.934C172.015 626.351 172.011 622.767 172.001 619.184C171.887 568.92 184.458 528.844 219.402 491.702C240.968 470.975 267.697 458.16 295.962 449.384C300.786 448.246 300.786 448.246 302.567 446.243L298.887 443.857C268.48 423.764 250.526 396.906 243.084 361.221C237.756 332.089 244.223 300.383 260.304 275.537C280.105 247.49 307.134 227.955 341.15 221.439C373.082 217.269 407.783 224.06 433.38 244.506C438.754 249.058 443.79 253.903 448.774 258.876L451.768 261.815C472.741 283.953 482.094 315.269 481.536 345.183C479.779 378.652 466.265 407.85 441.852 430.937C420.872 449.194 413.33 447.719 410.377 449.194C407.423 450.669 410.377 451.407 411.115 452.145C411.854 452.882 414.135 452.837 416.07 453.193C424.237 455.015 431.405 458.263 438.898 461.919C440.26 462.577 441.621 463.235 443.024 463.914C459.714 472.138 473.711 482.031 487.172 494.929L490.143 497.667C498.793 505.887 505.93 515.248 513.168 524.692C515.185 527.323 517.211 529.947 519.242 532.568C525.855 541.113 532.401 549.707 538.862 558.369C544.668 552.79 549.745 546.882 554.738 540.572C555.512 539.601 556.286 538.629 557.084 537.629C561.803 531.683 566.384 525.657 570.891 519.549C576.987 511.367 583.547 503.819 590.551 496.405L593.891 492.728C613.061 472.407 639.15 458.434 665.87 450.669C661.05 446.684 656.19 443.272 650.825 440.065C623.127 422.535 606.868 396.65 599.412 365.1C592.687 333.792 599.653 302.76 616.027 275.75C634.953 247.105 662.195 229.426 695.407 221.992ZM434.098 516.598C382.998 477.48 302.591 481.533 256.785 527.387C228.942 555.638 220.596 587.433 220.827 626.026C220.847 629.052 220.859 632.079 220.863 635.105C220.866 641.465 220.873 647.826 220.901 654.186C220.943 662.402 220.978 670.617 220.986 678.833C220.992 686.835 221.006 694.837 221.028 702.839L221.041 707.418C221.049 711.812 221.06 716.207 221.081 720.602L221.103 724.649C221.132 746.299 225.889 765.954 240.54 782.619C258.32 799.858 279.627 807.726 304.06 808.207L308.844 808.253L313.454 808.315C326.659 808.232 337.212 805.746 346.931 796.273C357.974 783.581 358.285 768.093 358.22 752.193C358.208 749.701 358.21 747.207 358.226 744.714C358.283 738.138 358.319 731.562 358.318 724.985C358.315 715.536 358.36 706.087 358.416 696.638L358.422 695.861C358.45 691.042 358.479 686.224 358.484 681.405C358.484 679.026 358.486 676.647 358.492 674.269L358.501 670.952C358.476 662.46 358.773 656.457 364.594 649.839C369.941 646.497 372.673 644.789 375.651 643.951C378.762 643.075 382.142 643.148 389.055 643.298C400.605 644.754 411.023 652.639 418.315 661.458C418.779 662.064 419.131 662.558 419.431 662.978C419.913 663.653 420.259 664.138 420.714 664.593L422.93 666.806C423.668 667.543 423.669 667.544 426.375 670.622L430.217 674.468C432.436 676.701 434.658 678.931 436.889 681.153C438.491 682.746 440.09 684.341 441.687 685.939C445.01 689.266 448.335 692.591 451.668 695.909C456.009 700.228 460.347 704.551 464.671 708.887C468.038 712.265 471.409 715.639 474.785 719.007C476.399 720.616 478.013 722.227 479.627 723.836C481.94 726.157 484.253 728.477 486.578 730.787L488.72 732.91C490.935 735.119 494.264 737.673 496.654 739.506C498.016 740.552 499.074 741.363 499.444 741.742C499.764 742.07 500.121 742.479 500.486 742.896C501.282 743.808 502.114 744.762 502.679 744.998C502.679 745.034 502.678 745.066 502.676 745.095L502.673 745.137C502.811 745.194 503.043 745.362 503.418 745.736C503.653 745.971 503.86 746.168 504.054 746.347L505.232 747.414C505.9 748.034 506.773 748.906 508.373 750.698C509.766 752.149 511.16 753.6 512.556 755.049C522.514 765.082 528.999 769.954 543.523 770.125C552.547 768.441 559.096 762.908 565.429 756.612L568.037 753.954C571.01 750.978 573.98 747.998 576.937 745.006C579.055 742.861 581.177 740.72 583.304 738.584C588.925 732.949 594.539 727.307 600.142 721.654C609.246 712.467 618.367 703.295 627.492 694.13C630.707 690.901 633.92 687.67 637.127 684.433C640.024 681.507 643.043 678.201 646.187 674.756C658.554 661.204 672.872 645.514 689.5 642.463C698.051 642.12 706.083 643.29 713.129 648.364C717.442 656.149 719.622 660.086 720.685 664.303C721.772 668.617 721.69 673.225 721.523 682.546C721.512 685.056 721.513 687.567 721.529 690.077C721.587 696.684 721.622 703.291 721.621 709.899C721.618 719.388 721.663 728.877 721.719 738.367L721.725 739.156C721.753 743.993 721.782 748.83 721.787 753.667C721.787 756.061 721.79 758.456 721.795 760.85L721.804 764.196C721.769 776.051 723.507 786.278 731.595 795.471C742.319 805.264 753.081 808.398 767.461 808.291L772.572 808.161C796.459 807.962 817.064 803.601 835.061 787.045C855.146 766.149 857.053 741.582 856.896 714.179C856.877 711.011 856.865 707.843 856.86 704.674C856.858 698.028 856.852 691.382 856.824 684.736C856.782 676.136 856.746 667.536 856.737 658.936C856.731 650.575 856.718 642.213 856.696 633.851L856.683 629.064C856.675 624.463 856.665 619.862 856.644 615.261L856.621 611.027C856.615 606.256 856.598 601.494 856.383 596.727C852.489 564.301 835.37 538.787 810.693 518.166C780.815 495.121 742.478 486.835 705.381 491.154C660.966 497.757 632.306 523.391 606.243 558.092C601.673 564.214 597.063 570.3 592.397 576.349C589.007 580.727 585.621 585.105 582.286 589.525L579.804 592.826C578.125 595.048 576.446 597.271 574.767 599.494C567.606 609.1 560.022 617.645 550.861 625.404C544.774 628.445 539.644 628.486 532.954 627.709C517.393 615.265 509.437 608.902 502.708 601.437C495.669 593.628 489.972 584.612 478.316 566.164C478.034 565.78 477.754 565.395 477.473 565.01C467.561 551.451 457.806 538.108 445.463 526.609L441.39 522.961C438.99 520.806 436.561 518.682 434.098 516.598ZM502.673 745.137C502.485 745.058 502.472 745.184 502.513 745.266C502.554 745.349 502.649 745.388 502.673 745.137ZM755.681 281.282C727.363 264.574 691.71 266.383 667.439 289.633C651.595 306.151 645.889 321.889 646.164 344.605C646.698 363.532 653.952 380.299 667.901 393.5L671.777 396.082C687.639 408.25 703.769 411.757 723.404 411.331C740.32 410.355 756.638 402.995 768.055 390.451L770.726 387.23C786.038 368.918 788.391 349.779 786.971 326.741C783.073 308.241 771.032 291.833 755.681 281.282ZM409.321 288.106C390.358 273.08 367.766 266.769 343.734 271.601C324.397 277.557 309.195 288.734 298.887 306.121C290.368 322.92 287.558 341.882 292.512 360.276C299.016 378.513 309.509 393.787 326.837 403.09L330.627 404.934C338.202 408.858 345.199 410.885 353.726 411.296C375.95 411.766 395.438 407.914 412.407 392.117C427.049 376.068 433.581 357.378 432.939 335.824C431.327 317.5 422.874 300.628 409.321 288.106Z" fill="white"/>
</svg>
